<?xml version="1.0" encoding="UTF-8" standalone="no"?>
<!-- Created with Inkscape (http://www.inkscape.org/) -->

<svg
   xmlns:dc="http://purl.org/dc/elements/1.1/"
   xmlns:cc="http://creativecommons.org/ns#"
   xmlns:rdf="http://www.w3.org/1999/02/22-rdf-syntax-ns#"
   xmlns:svg="http://www.w3.org/2000/svg"
   xmlns="http://www.w3.org/2000/svg"
   version="1.1"
   width="744.09448"
   height="1052.3622"
   id="svg2">
  <defs
     id="defs4" />
  <metadata
     id="metadata7">
    <rdf:RDF>
      <cc:Work
         rdf:about="">
        <dc:format>image/svg+xml</dc:format>
        <dc:type
           rdf:resource="http://purl.org/dc/dcmitype/StillImage" />
        <dc:title></dc:title>
      </cc:Work>
    </rdf:RDF>
  </metadata>
  <g
     id="layer1">
    <path
       d="m 44.187588,202.49501 c 0.942661,5.47525 2.505045,10.81232 3.87385,16.1896 2.262324,8.74768 4.479201,17.53266 6.041417,26.43578 1.90181,11.39891 3.373692,22.86208 4.936001,34.31055 1.457452,9.88522 2.9722,19.76025 4.526888,29.63069 0.886404,5.54855 1.728988,11.09957 2.42148,16.67578 0.315823,3.39925 0.805308,6.77692 1.227375,10.16351 0.147524,0.95398 0.134949,1.92548 0.340714,2.87114 0.124581,0.57256 0.252695,0.66247 0.238563,0.60949 -0.04745,-0.1779 -0.132507,-0.34357 -0.198761,-0.51535 -2.948201,1.58499 -5.826392,3.30773 -8.844604,4.75496 -0.209016,0.10022 0.203618,-0.41912 0.267108,-0.64206 0.07648,-0.26854 0.123018,-0.54617 0.150424,-0.82405 0.173131,-1.75542 -0.05313,-3.58525 -0.168871,-5.3335 -0.40245,-5.01436 -0.807566,-10.02454 -1.087152,-15.04807 -0.236112,-6.33214 0.407813,-12.66555 1.343941,-18.92099 1.095253,-6.12365 2.894833,-12.0485 5.636574,-17.6301 1.870679,-3.79882 4.547132,-7.02732 7.509071,-10.0104 2.325264,-2.22219 4.845868,-4.28319 7.639083,-5.89707 11.051737,-6.38555 7.297135,-4.7746 13.433017,-7.20486 2.320937,-0.90628 4.786497,-1.2535 7.268164,-1.27267 0.81326,-0.006 1.63801,-0.0449 2.43764,0.10348 1.36518,0.25326 4.66931,1.51546 5.95195,1.98159 4.30591,2.12861 8.83629,4.41884 11.91806,8.24899 0.71388,0.88724 1.28461,1.88071 1.92691,2.82106 1.85446,3.23234 3.68325,6.53346 5.03207,10.01826 0.56991,1.47239 1.02796,2.98566 1.53944,4.47935 1.54924,4.52431 1.48742,4.35759 2.98564,8.79985 2.11582,6.17517 3.98797,12.42592 5.88703,18.66941 1.40837,4.44183 2.73029,8.91726 4.4547,13.24975 0,0 -9.16079,5.09865 -9.16079,5.09865 l 0,0 c -1.62948,-4.40489 -2.89856,-8.92866 -4.35204,-13.39253 -1.8837,-6.25521 -3.63244,-12.5503 -5.66216,-18.76109 -2.58578,-7.88072 -5.07619,-15.89696 -9.55175,-22.95634 -0.64149,-0.87581 -1.22768,-1.79494 -1.92447,-2.62743 -3.05287,-3.64747 -7.36199,-5.94478 -11.60688,-7.89287 -2.046123,-0.7004 -3.689151,-1.38187 -5.849943,-1.65838 -3.183036,-0.40732 -6.476631,0.43247 -9.432238,1.50903 -4.490265,1.9603 -3.497277,1.64002 4.383704,-2.97212 0.682761,-0.39956 -1.352668,0.82104 -2.018256,1.24861 -1.686035,1.08308 -2.387599,1.55637 -3.930836,2.8571 -0.594803,0.50133 -1.154505,1.04289 -1.731757,1.56433 -2.986812,2.90706 -5.757911,6.01013 -7.70361,9.736 -2.903401,5.43076 -4.779885,11.2917 -5.832137,17.36115 -1.038244,6.18319 -1.638473,12.43748 -1.422945,18.71506 0.277717,5.00808 0.780746,9.99296 1.145412,14.99444 0.15312,1.79397 0.414221,3.60276 0.418687,5.40543 2.59e-4,0.10443 0.03975,1.61419 -0.221415,1.79692 -3.051432,2.13494 -6.293855,3.98299 -9.440782,5.97449 -1.077523,-1.23451 -0.97138,-2.8541 -1.099475,-4.41926 -0.351432,-3.41118 -0.833896,-6.80693 -1.089115,-10.22806 -0.655659,-5.59961 -1.439132,-11.18201 -2.175195,-16.77136 -1.425459,-9.91497 -2.909795,-19.82181 -4.384237,-29.72967 -1.39771,-11.44758 -3.015019,-22.874 -4.939644,-34.24474 -1.759466,-8.82191 -3.714441,-17.6152 -6.203539,-26.26325 -1.477018,-5.33581 -2.972374,-10.67347 -4.193413,-16.0744 0,0 9.291102,-4.98383 9.291102,-4.98383 z"
       id="path2985"
       style="fill:#000000;fill-opacity:1;fill-rule:nonzero;stroke:none" />
    <path
       d="m 164.92148,288.01534 c 0.40076,-0.17923 0.80884,-0.34291 1.20228,-0.53769 0.4921,-0.24362 0.9696,-0.5157 1.45271,-0.7767 0.5324,-0.28765 2.11747,-1.17249 1.5938,-0.86923 -13.91946,8.06079 -7.08818,4.18295 -4.10885,1.94475 2.78545,-2.18017 4.90075,-4.77618 6.12378,-8.10074 0.82549,-3.41939 0.13597,-6.37258 -1.17172,-9.53886 -0.813,-1.65665 -2.05372,-3.92445 -4.17449,-4.07853 -0.32524,-0.0236 -0.64724,0.0803 -0.97086,0.12045 -4.50901,2.14399 4.53963,-2.91897 6.99254,-4.01953 0.68689,-0.30819 -1.11081,1.02272 -1.59414,1.59994 -0.8474,1.01203 -2.59294,3.62985 -3.14283,4.7765 -0.58203,1.21367 -0.99241,2.50244 -1.48861,3.75366 -1.36361,4.69418 -2.89634,9.63623 -2.54158,14.60223 0.20976,2.93627 0.82598,4.71374 1.57718,7.54383 1.58947,4.61856 3.62819,9.09943 6.5533,13.03634 2.0665,2.78129 2.69483,3.26816 5.09673,5.74713 4.06716,3.66239 8.56585,7.08428 14.05769,8.17053 0.81686,0.16157 1.65565,0.17962 2.48348,0.26943 0.81848,-0.12416 3.10148,-0.89012 2.45544,-0.37248 -1.65333,1.32473 -3.56162,3.32521 -5.64224,2.92591 -1.6034,-0.30772 2.46762,-2.14461 3.60375,-3.31713 3.94009,-4.06626 6.37919,-8.53054 9.0516,-13.45483 0.759,-1.55518 1.51799,-3.11036 2.27699,-4.66554 0,0 9.09305,-4.1245 9.09305,-4.1245 l 0,0 c -0.76805,1.57361 -1.5361,3.14722 -2.30415,4.72082 -1.60456,3.01068 -3.61684,7.0132 -5.59444,9.8031 -0.97751,1.37902 -2.11626,2.63871 -3.24743,3.89477 -5.08121,5.64217 -6.49356,6.045 -15.55225,10.39511 -0.78431,0.37663 -1.73647,0.11246 -2.60471,0.16869 -0.84607,-0.14147 -1.70518,-0.21974 -2.53823,-0.4244 -5.5537,-1.3644 -10.08223,-4.90108 -14.22219,-8.69038 -2.19779,-2.29406 -3.31442,-3.32257 -5.2306,-5.87506 -3.01559,-4.01699 -4.97098,-8.66447 -6.66731,-13.3568 -0.64507,-2.36473 -1.55682,-5.29978 -1.78413,-7.76076 -0.45832,-4.96182 1.22536,-10.22745 2.48253,-14.94663 0.42604,-1.28616 0.74815,-2.61155 1.27812,-3.85849 0.39105,-0.92007 0.95274,-1.75881 1.47233,-2.6129 3.31893,-5.45564 6.61025,-9.06179 14.24053,-10.12097 0.38693,0.0549 0.78531,0.0563 1.16077,0.16469 2.28174,0.65866 3.62847,2.85623 4.57148,4.86298 1.36694,3.2899 2.1854,6.61988 1.51565,10.20005 -0.15889,0.5396 -0.27412,1.09403 -0.47667,1.6188 -1.0796,2.79703 -3.23306,5.11894 -5.44143,7.06519 -5.4638,4.43379 -11.82599,7.64523 -18.14189,10.69884 0,0 8.30502,-6.58159 8.30502,-6.58159 z"
       id="path2987"
       style="fill:#000000;fill-opacity:1;fill-rule:nonzero;stroke:none" />
    <path
       d="m 214.06932,206.38574 c 0.65128,8.18684 1.49317,16.35927 2.16101,24.54659 1.12317,12.73094 2.15222,25.46739 3.61538,38.16571 1.24737,10.98578 3.19763,21.86968 5.40513,32.69772 0.83633,4.03059 1.93028,8.00222 3.06896,11.95599 0,0 -9.10309,4.95361 -9.10309,4.95361 l 0,0 c -1.07719,-4.01646 -2.09249,-8.05268 -2.92608,-12.12757 -1.9779,-10.93002 -3.77482,-21.89806 -5.1341,-32.9237 -1.5179,-12.69206 -2.48037,-25.44268 -3.66862,-38.16865 -0.78572,-8.07675 -1.67747,-16.14465 -2.81492,-24.18031 0,0 9.39633,-4.91939 9.39633,-4.91939 z"
       id="path2989"
       style="fill:#000000;fill-opacity:1;fill-rule:nonzero;stroke:none" />
    <path
       d="m 246.18702,198.45422 c 0.14687,9.22395 0.99681,18.41746 1.806,27.60167 1.15785,12.37109 2.3647,24.73938 4.12007,37.04156 1.01385,9.28827 2.53434,18.50881 3.7053,27.77669 0.72705,4.32769 0.94173,8.8 2.31576,12.99085 0,0 -9.193,5.05535 -9.193,5.05535 l 0,0 c -1.39264,-4.28777 -1.53491,-8.86264 -2.17796,-13.29916 -0.99561,-9.31184 -2.33192,-18.58461 -3.47004,-27.87964 -1.57323,-12.35072 -2.79207,-24.74283 -4.04083,-37.12976 -0.88588,-9.09997 -1.74544,-18.2026 -2.41131,-27.32181 0,0 9.34601,-4.83575 9.34601,-4.83575 z"
       id="path2991"
       style="fill:#000000;fill-opacity:1;fill-rule:nonzero;stroke:none" />
    <path
       d="m 281.43927,247.17119 c -0.39791,0.10534 -0.81924,0.14515 -1.19371,0.31602 -0.49623,0.22643 -1.87056,1.12153 -1.39025,0.86304 2.49015,-1.3401 4.69565,-3.35821 7.42199,-4.1091 1.0447,-0.28773 -1.38583,1.67599 -1.94901,2.60174 -1.3558,2.22864 -2.09037,4.41568 -3.03295,6.8269 -1.58014,6.66935 -1.76346,13.6875 -0.0502,20.35842 0.29267,1.13956 0.70421,2.24524 1.05631,3.36785 1.91537,5.10813 4.97467,9.69747 9.07182,13.32047 0.78271,0.69212 1.64221,1.29221 2.46332,1.93832 2.83867,1.87387 5.93212,3.82969 9.49614,3.63112 0.79125,-0.0441 2.99962,-0.88317 2.33381,-0.45339 -1.91343,1.2351 -4.11451,1.95383 -6.17176,2.93075 2.85803,-3.18142 5.26139,-6.93552 6.43549,-11.09681 1.37002,-4.85569 1.20798,-9.657 0.95655,-14.61676 -0.69856,-6.45588 -2.48911,-12.73645 -5.84644,-18.30864 -1.86737,-2.92257 -4.46364,-5.11219 -7.9075,-5.88217 -0.62983,-0.14081 -1.27876,-0.17557 -1.91814,-0.26335 0,0 8.54598,-5.99058 8.54598,-5.99058 l 0,0 c 0.66727,0.13562 1.34727,0.21918 2.0018,0.40686 3.58833,1.02888 6.33403,3.38599 8.26695,6.5291 3.37976,5.86837 5.07438,12.17148 5.79723,18.89711 0.24601,4.95773 0.48244,10.10536 -0.73121,14.98235 -1.03238,4.14863 -3.56729,8.17775 -6.09183,11.55639 -3.88062,2.35731 -7.60867,4.9864 -11.64187,7.07194 -0.7423,0.38383 -1.66026,0.26067 -2.49563,0.23845 -3.67223,-0.0977 -6.83193,-2.13577 -9.72661,-4.17062 -0.83399,-0.6804 -1.70325,-1.31974 -2.50197,-2.04122 -4.18226,-3.77782 -7.3584,-8.47335 -9.28995,-13.76581 -0.36918,-1.15633 -0.80681,-2.29299 -1.10754,-3.46898 -1.74804,-6.83555 -1.43766,-13.99577 -0.18717,-20.87924 1.08065,-2.88794 1.49612,-4.2332 2.88261,-6.99678 0.49411,-0.98489 0.74384,-2.21436 1.62143,-2.88068 3.18127,-2.41537 8.61877,-6.09774 13.32298,-7.33181 0,0 -8.44067,6.41911 -8.44067,6.41911 z"
       id="path2993"
       style="fill:#000000;fill-opacity:1;fill-rule:nonzero;stroke:none" />
    <path
       d="m 145.10205,400.61242 c -0.47517,-4.65528 -1.75149,-8.40731 -4.11324,-12.41656 -2.77426,-3.99923 -6.61604,-7.05888 -10.69785,-9.62961 -3.83345,-2.09204 -7.37535,-3.47582 -11.77716,-3.36041 -0.49294,0.0844 -0.99613,0.12231 -1.47882,0.25316 -0.46912,0.12718 -1.78089,0.76611 -1.36333,0.51732 2.54756,-1.51789 5.03414,-3.18827 7.7693,-4.33411 0.68568,-0.28725 -1.05003,1.06661 -1.4561,1.68933 -1.05915,1.62422 -1.586,3.36337 -2.25221,5.16111 -2.31197,8.97807 -1.15794,18.20877 0.0672,27.24971 2.02643,12.40389 4.99204,24.62254 7.72429,36.88201 2.84334,12.63129 5.28767,25.37177 7.0163,38.20555 0.71317,7.23953 1.68268,14.49998 1.55003,21.79257 -0.0694,3.81476 -0.23677,4.30948 -0.72629,7.95114 -0.63658,3.53466 -2.21156,7.29175 -4.65181,9.9866 -5.1941,5.73602 -15.4396,9.65944 -21.50337,12.68498 -5.24547,1.51287 -10.648852,2.23849 -16.044292,2.94533 0,0 8.039232,-6.00195 8.039232,-6.00195 l 0,0 c 5.33933,-0.69571 10.68822,-1.41001 15.8347,-3.08137 -1.15772,0.97412 -4.7837,2.16623 -3.47317,2.92236 1.40824,0.8125 2.8419,-1.59017 4.17895,-2.51515 1.27786,-0.88402 2.56334,-1.78906 3.64926,-2.90045 1.28942,-1.31967 3.28049,-4.68268 3.97284,-6.4206 0.3997,-1.00331 0.56557,-2.08463 0.84836,-3.12695 0.1998,-1.22282 0.45794,-2.43752 0.59941,-3.66845 0.99342,-8.6436 -0.15665,-17.38424 -0.97759,-25.98437 -1.75193,-12.81274 -4.04325,-25.54945 -6.91306,-38.161 -2.86283,-12.24209 -5.76057,-24.49687 -7.87415,-36.89386 -0.56042,-3.71653 -1.1778,-7.35005 -1.48508,-11.09773 -0.44983,-5.48608 -0.23897,-10.99968 0.82904,-16.40434 0.70867,-2.08542 1.08121,-3.41232 2.05703,-5.38524 0.35008,-0.70778 0.5389,-1.60125 1.18966,-2.04848 4.86904,-3.34622 8.12382,-6.02595 13.35847,-6.36747 4.30303,0.20088 8.2979,1.72557 11.99436,3.9111 4.19763,2.68128 8.14075,5.8985 11.00929,10.01729 0.97725,1.67409 1.32859,2.15347 2.08891,3.95551 1.17779,2.79147 1.75849,5.75718 2.29418,8.72416 0,0 -9.28325,4.94887 -9.28325,4.94887 z"
       id="path2995"
       style="fill:#000000;fill-opacity:1;fill-rule:nonzero;stroke:none" />
    <path
       d="m 144.03715,443.20505 c -4.79185,-0.12705 -9.63872,0.12892 -14.37262,0.92302 -1.46029,0.24496 -2.89968,0.60138 -4.34952,0.90207 -8.25456,2.08476 -16.66335,3.42681 -24.97399,5.25302 -4.481969,1.13171 -8.980945,2.19183 -13.472189,3.28554 0,0 8.275528,-6.31467 8.275528,-6.31467 l 0,0 c 4.442165,-1.04357 8.882081,-2.09562 13.323751,-3.14096 8.29656,-1.72072 16.65322,-3.14949 24.88574,-5.17361 1.49022,-0.29726 2.97084,-0.64758 4.47067,-0.89179 4.88663,-0.79566 9.8858,-1.07493 14.83006,-0.98495 0,0 -8.61743,6.14233 -8.61743,6.14233 z"
       id="path2997"
       style="fill:#000000;fill-opacity:1;fill-rule:nonzero;stroke:none" />
    <path
       d="m 164.84135,420.62132 c 0.4518,2.53963 1.01158,5.08226 0.87079,7.67218 -0.59431,4.45125 -8.69734,10.53086 -11.19761,5.81169 -0.16498,-0.31139 -0.23968,-0.66278 -0.35951,-0.99417 -0.70995,-4.05046 1.02193,-7.97999 2.56658,-11.63049 1.71592,-3.49948 3.62533,-7.02543 6.33222,-9.87793 0.57708,-0.60812 1.22475,-1.14512 1.83713,-1.71767 5.73524,-4.19031 1.43855,-1.17453 13.49184,-8.12275 0,0 -8.03541,6.48544 -8.03541,6.48544 l 0,0 c 7.1727,-4.24642 8.45115,-5.16823 4.14571,-2.2739 -0.62237,0.52461 -1.28517,1.00471 -1.86713,1.57383 -2.77831,2.71703 -4.69595,6.20208 -6.47878,9.60539 -1.49695,3.38701 -3.22566,7.04645 -2.71106,10.84708 0.0901,0.31398 0.11595,0.78949 0.5029,0.94024 0.0724,0.0282 0.27069,-0.15277 0.20417,-0.11258 -2.89287,1.74781 -5.78892,3.49035 -8.68338,5.23553 0.15727,-0.11801 0.3552,-0.19571 0.4718,-0.35403 0.15409,-0.20921 0.20954,-0.47554 0.3143,-0.71331 0.38532,-2.46679 -0.23685,-4.94347 -0.74549,-7.35489 0,0 9.34093,-5.01966 9.34093,-5.01966 z"
       id="path2999"
       style="fill:#000000;fill-opacity:1;fill-rule:nonzero;stroke:none" />
    <path
       d="m 201.50709,397.42331 c -4.54955,2.51468 4.06364,-2.4236 6.20181,-3.42694 0.65653,-0.30808 -1.14972,0.88884 -1.67248,1.39149 -0.57315,0.5511 -1.16096,1.10446 -1.60754,1.76232 -1.31118,1.93155 -1.75121,3.58853 -2.53667,5.76259 -0.8127,3.57686 -1.51198,7.5352 -0.33232,11.1374 0.65598,2.00311 1.31593,2.60931 2.55164,4.2747 2.81061,2.71902 6.47234,5.46543 10.61309,5.3797 0.62315,-0.0129 1.22973,-0.20421 1.8446,-0.30632 -2.32808,1.21344 -4.50821,2.76757 -6.98422,3.64033 -0.83857,0.29558 1.33039,-1.18653 1.9174,-1.85434 1.69055,-1.92326 3.00459,-4.32819 3.36844,-6.8921 0.12213,-0.86064 0.0511,-1.73777 0.0767,-2.60665 -0.28635,-4.82159 -2.30161,-8.56436 -5.26958,-12.22641 -1.35913,-1.50609 -0.67364,-0.81679 -2.04073,-2.08342 0,0 8.96192,-5.51424 8.96192,-5.51424 l 0,0 c 1.38097,1.38325 0.69006,0.64166 2.06062,2.236 2.94906,3.81576 5.15115,7.98862 5.49941,12.90048 0.0163,0.93752 0.13894,1.87924 0.0488,2.81255 -0.26339,2.72614 -1.51877,5.25481 -3.16486,7.39384 -0.5552,0.72146 -1.03806,1.55561 -1.79976,2.05418 -3.55952,2.3299 -7.37493,4.24321 -11.06239,6.36481 -0.65997,0.0273 -1.32128,0.13191 -1.97991,0.0818 -4.3247,-0.32907 -8.03914,-3.18079 -10.9933,-6.10717 -1.27875,-1.751 -2.07976,-2.56811 -2.78875,-4.66233 -1.2704,-3.75255 -0.54057,-7.91295 0.18279,-11.67211 0.52497,-1.58916 1.42224,-4.58224 2.26977,-6.06751 0.4782,-0.83803 2.26278,-2.79744 3.12816,-3.35515 7.8748,-5.07506 7.21871,-4.70465 11.81242,-6.99908 0,0 -8.30502,6.58159 -8.30502,6.58159 z"
       id="path3001"
       style="fill:#000000;fill-opacity:1;fill-rule:nonzero;stroke:none" />
    <path
       d="m 250.72285,400.37924 c 1.67063,2.97804 3.0606,6.08918 4.17904,9.31282 1.12696,5.63648 -1.88108,5.81267 -9.97025,7.81988 -0.72159,0.17906 -0.7889,-1.26168 -1.14098,-1.9165 -0.39025,-0.72583 -0.72273,-1.48126 -1.08409,-2.22189 -2.35274,-4.58496 -3.52346,-9.52353 -4.0084,-14.61929 -0.0956,-3.18069 0.13441,-6.60689 2.07479,-9.28241 0.38568,-0.53181 0.86386,-0.98996 1.2958,-1.48494 4.52289,-3.65494 2.95824,-2.54416 12.54663,-7.3447 0.69592,-0.34842 1.49397,-0.46284 2.2656,-0.56431 2.57292,-0.33834 5.08663,0.16301 7.57937,0.70946 4.59257,0.99886 8.1727,3.79697 11.61217,6.8264 2.12678,1.88192 3.73569,4.31552 5.93788,6.10863 0.17893,0.0164 0.37151,0.11963 0.53681,0.0492 0.16961,-0.0723 0.51767,-0.5062 0.35093,-0.42753 -2.83914,1.33963 -5.43208,3.24917 -8.41363,4.23186 -0.56208,0.18526 0.44263,-1.09903 0.62077,-1.66341 0.55787,-1.76742 0.7248,-2.80215 1.10931,-4.63611 1.36885,-6.65981 2.49816,-13.36139 4.04462,-19.98423 1.42725,-4.15789 2.77755,-8.68251 5.6637,-12.12266 0.50992,-0.6078 1.12177,-1.12224 1.68266,-1.68336 4.77067,-3.2445 9.69995,-7.64305 15.68449,-7.5707 3.26904,0.0395 6.01426,1.46023 8.88495,2.83453 7.74324,6.1152 13.91698,13.83363 19.56575,21.85043 2.18567,3.06615 4.08642,6.31862 6.02346,9.54304 0,0 -8.83782,5.11861 -8.83782,5.11861 l 0,0 c -1.89988,-3.21663 -3.79143,-6.44135 -5.90032,-9.52801 -5.51015,-7.91044 -11.36885,-15.78434 -19.40623,-21.31896 -2.81336,-1.2618 -5.43972,-2.49737 -8.61476,-2.29047 -0.84544,0.0551 -3.127,1.04404 -2.49628,0.47836 1.96271,-1.76034 4.4701,-2.79729 6.68183,-4.23233 0.64267,-0.41698 -1.3158,0.78503 -1.9737,1.17754 -0.58579,0.50064 -1.22543,0.9444 -1.75738,1.50192 -3.01087,3.15562 -4.44146,7.79937 -5.91517,11.78389 -1.62903,6.57939 -2.88736,13.23377 -4.00436,19.91844 -0.39049,2.08969 -0.46824,2.68428 -0.97018,4.70355 -0.14878,0.59852 -0.0154,1.39033 -0.49007,1.78411 -3.7294,3.09397 -6.91519,8.43433 -11.0635,6.07128 -2.05468,-1.94665 -3.72701,-4.26423 -5.80481,-6.19232 -3.31037,-2.93736 -6.80577,-5.52735 -11.2548,-6.40686 -2.45798,-0.44524 -4.81778,-0.80901 -7.31149,-0.29798 -0.74868,0.15343 -2.79586,1.15108 -2.18646,0.68989 1.62625,-1.23073 10.58908,-6.61765 5.25208,-3.13849 -0.44783,0.42855 -0.93587,0.81869 -1.3435,1.28564 -2.10124,2.40704 -2.47716,5.64572 -2.45524,8.71088 0.359,4.98064 1.49798,9.81225 3.81069,14.27401 0.36271,0.6963 0.68422,1.41567 1.08815,2.08889 0.27414,0.45689 1.34595,0.94652 0.94065,1.29242 -2.56296,2.18734 -5.7953,3.44205 -8.6273,5.2677 -0.15061,0.0971 0.41267,0.0797 0.53512,-0.0511 0.44316,-0.47343 0.10794,-1.69126 0.0584,-2.08018 -1.0329,-3.1637 -2.36009,-6.23024 -4.15765,-9.04172 0,0 9.16272,-5.33294 9.16272,-5.33294 z"
       id="path3003"
       style="fill:#000000;fill-opacity:1;fill-rule:nonzero;stroke:none" />
    <path
       d="m 172.58254,473.58059 c 0.10636,7.78746 0.71632,15.56437 1.36415,23.32414 1.17053,13.10337 3.80974,25.9962 6.42616,38.86731 1.76069,8.22062 3.6106,16.42965 6.17901,24.44026 1.16493,2.9703 2.17854,6.38162 4.75355,8.49369 0.38959,0.31955 0.84875,0.54333 1.27312,0.815 1.36783,0.69487 2.79264,0.88733 4.27864,0.41491 0.52229,-0.16604 1.98079,-0.93853 1.49222,-0.69024 -7.99477,4.06306 -8.50575,5.20873 -4.51278,0.89629 4.90517,-6.09456 7.74391,-13.45601 10.03007,-20.85289 2.39038,-7.93234 3.03686,-16.21094 3.48783,-24.43854 0.22786,-5.08193 0.21171,-10.16963 0.16945,-15.25502 -0.14132,-6.33053 0.45473,-5.56243 10.06058,-8.89751 0.51818,-0.17991 0.79842,0.76389 1.10782,1.21683 0.54467,0.79736 0.96022,1.67564 1.44033,2.51347 4.43432,9.56488 8.73649,19.18623 13.2783,28.70175 2.96989,6.20346 6.2833,12.2082 10.17179,17.87904 0.84578,1.13425 3.78747,5.42459 5.19186,5.7461 0.23585,0.054 0.46307,-0.14045 0.69461,-0.21067 -2.74929,1.2338 -5.28547,3.14903 -8.24786,3.70139 -0.80476,0.15005 0.62781,-1.51952 0.81738,-2.31591 0.2892,-1.21495 0.45911,-2.45679 0.6137,-3.69608 0.59996,-4.8096 0.54269,-9.63658 0.47548,-14.47022 -0.34986,-12.55306 -2.20581,-24.97141 -4.60281,-37.27512 -2.32112,-11.15723 -5.02218,-22.23544 -8.43371,-33.11037 -1.9695,-6.30368 -4.18868,-12.52156 -6.59544,-18.66983 -0.68906,-1.61251 -1.20665,-3.28504 -1.69809,-4.96501 0,0 9.22734,-5.02029 9.22734,-5.02029 l 0,0 c 0.43638,1.66863 0.90914,3.32668 1.5543,4.92987 2.33861,6.22668 4.36939,12.55893 6.248,18.93929 1.03336,3.40196 2.25035,7.31712 3.17288,10.73887 2.00501,7.43679 3.57033,14.99884 5.19468,22.52365 0.41884,2.07035 0.88163,4.13229 1.25652,6.21105 1.85583,10.2904 2.90062,20.72347 3.56139,31.15146 0.0995,4.85915 0.1893,9.66416 -0.22219,14.51206 -0.10679,1.25815 -0.17937,2.52241 -0.38205,3.76871 -0.1362,0.8375 0.007,1.90728 -0.63185,2.46584 -3.01092,2.63303 -6.61037,4.50519 -9.91556,6.75778 -0.33702,-0.10362 -0.70037,-0.14416 -1.01106,-0.31088 -1.98364,-1.06442 -3.89313,-4.41128 -5.21832,-6.15241 -3.81219,-5.7895 -7.01303,-11.91224 -9.88469,-18.22278 -4.41244,-9.5181 -8.73516,-19.09215 -13.54282,-28.41683 -0.49069,-0.73296 -0.91795,-1.51262 -1.47209,-2.19888 -0.2512,-0.3111 -1.22843,-0.50922 -0.92254,-0.76673 14.47406,-12.18483 8.74804,-8.16144 8.1555,-4.62833 -0.15591,0.92963 -0.11567,1.88395 -0.12024,2.81954 -0.0267,5.14896 -0.12849,10.29797 -0.40397,15.44036 -0.47648,8.28026 -1.12912,16.61526 -3.33985,24.6434 -2.31726,7.46163 -5.10154,14.93187 -9.83164,21.23499 -4.72201,5.66864 -2.08878,3.05519 -13.17352,9.53921 -1.94419,1.13725 -4.5554,0.46347 -6.36056,-0.53835 -0.45679,-0.33549 -0.94796,-0.6286 -1.37038,-1.00646 -2.60808,-2.33298 -3.72395,-5.79524 -4.8857,-8.97508 -2.41692,-8.1404 -3.98491,-16.48407 -5.74845,-24.78317 -2.69906,-12.87378 -5.08233,-25.82321 -6.59894,-38.89592 -0.84271,-7.68785 -1.26651,-15.40836 -2.00034,-23.10733 0,0 9.45079,-4.81541 9.45079,-4.81541 z"
       id="path3005"
       style="fill:#000000;fill-opacity:1;fill-rule:nonzero;stroke:none" />
    <path
       d="m 282.64075,494.24288 c 0.45519,6.24035 0.9622,12.47771 1.59866,18.70281 0.4665,5.08089 1.0295,10.15297 1.48776,15.23457 0.1342,1.46885 0.22978,2.94057 0.31738,4.41276 0,0 -9.36884,4.82849 -9.36884,4.82849 l 0,0 c -0.0491,-1.47659 -0.10507,-2.95305 -0.20972,-4.42702 -0.37383,-5.11209 -0.91507,-10.20984 -1.28632,-15.32224 -0.56156,-6.17764 -1.102,-12.36242 -1.93525,-18.50998 0,0 9.39633,-4.91939 9.39633,-4.91939 z"
       id="path3007"
       style="fill:#000000;fill-opacity:1;fill-rule:nonzero;stroke:none" />
    <path
       d="m 307.89376,499.57839 c 1.16057,3.4934 2.48836,6.9072 3.27251,10.51148 0.4695,2.48904 0.72635,5.02972 0.64311,7.56324 -0.43278,4.43505 -0.96235,2.40178 -9.76597,5.67009 -0.28258,0.1049 -0.13779,-0.58963 -0.15785,-0.89038 -0.0735,-1.10233 0.079,-2.15321 0.18073,-3.25146 0.88189,-7.21925 1.81938,-14.4343 2.77064,-21.6457 0.70639,-6.19524 1.67241,-12.34943 3.31631,-18.36732 1.07391,-3.15652 2.20394,-6.53549 4.65862,-8.9317 0.5048,-0.49277 1.09502,-0.88967 1.64253,-1.33451 2.99161,-1.6884 8.30112,-6.35071 13.08837,-6.44269 4.41081,-0.0848 7.84,2.32068 11.24489,4.75882 4.37721,4.26707 8.34654,9.0191 11.36154,14.35964 1.57263,2.78563 2.87774,5.85806 4.18861,8.77014 2.64855,5.96908 4.31123,12.30271 5.43073,18.71877 0.28674,1.74968 0.44028,3.51418 0.5696,5.28067 0,0 -9.32459,4.82367 -9.32459,4.82367 l 0,0 c -0.0874,-1.74984 -0.18613,-3.50002 -0.43054,-5.2369 -0.95176,-6.38316 -2.46445,-12.69659 -4.99874,-18.6517 -1.53221,-3.44508 -2.27185,-5.33554 -4.14733,-8.62886 -2.97365,-5.22168 -6.76269,-9.96513 -11.26956,-13.94052 -2.72944,-1.84558 -5.10415,-3.49042 -8.46559,-3.94536 -0.80594,-0.10908 -1.63227,-0.12347 -2.43971,-0.0261 -0.74563,0.0899 -2.77616,1.03467 -2.17648,0.58254 2.19518,-1.65508 4.70643,-2.84284 7.05965,-4.26426 -0.56657,0.37269 -1.17788,0.68494 -1.69969,1.11806 -2.59491,2.15385 -3.78803,5.48391 -4.90963,8.53386 -1.78811,5.99876 -2.87113,12.15013 -3.64199,18.3594 -0.96288,7.12969 -1.77609,14.28158 -2.46835,21.44271 -0.092,1.14744 -0.18814,1.8643 -0.15978,2.96465 0.005,0.20528 0.2378,0.50275 0.0643,0.61269 -15.05453,9.54195 -9.86694,8.2023 -8.97982,4.29784 0.27259,-2.44257 -0.0878,-4.92813 -0.42782,-7.34734 -0.71154,-3.569 -1.93793,-6.97048 -3.24757,-10.36063 0,0 9.21882,-5.10279 9.21882,-5.10279 z"
       id="path3009"
       style="fill:#000000;fill-opacity:1;fill-rule:nonzero;stroke:none" />
    <path
       d="m 357.02147,419.46943 c 2.21301,-3.83385 4.59002,-7.57405 7.12933,-11.19975 2.36411,-3.53799 5.45244,-6.37261 8.97877,-8.70536 4.21445,-0.37056 8.77816,-6.80268 13.96824,-6.77035 2.22625,0.0139 4.19327,1.01703 6.10816,2.00601 0.83337,0.76964 1.76088,1.44846 2.50009,2.30893 1.07696,1.25363 2.00097,2.63323 2.92359,4.00444 3.38172,5.02599 5.89575,10.46195 7.62971,16.27223 0.65346,2.18965 1.08807,4.43873 1.63211,6.6581 1.1891,5.91016 2.08579,11.87411 1.68179,17.92031 -0.4348,6.5071 -2.05709,12.80766 -3.6022,19.11271 -2.33388,9.28596 -6.20065,18.07961 -10.63667,26.5336 -1.99852,3.90018 -4.60797,7.42449 -7.23814,10.91133 -0.5105,0.65403 -0.99482,1.2541 -1.46926,1.92923 -0.37,0.52653 -0.44501,0.74369 -0.46978,0.70107 -0.47536,-0.81786 -0.3616,-0.71467 0.0988,-1.20314 4.16082,-2.18465 8.19179,-4.63261 12.32391,-6.88211 5.37873,-2.95176 11.14861,-5.01192 17.09812,-6.44003 5.09778,-1.22584 10.31847,-1.7403 15.44024,-2.85292 0,0 -8.28178,6.28183 -8.28178,6.28183 l 0,0 c -5.10606,1.02572 -10.30447,1.53647 -15.35536,2.83819 -5.87998,1.52213 -11.58111,3.62513 -16.89021,6.61266 -4.23257,2.33313 -8.33207,4.9466 -12.69868,7.01241 -3.17412,0.13617 -0.048,-3.08413 0.55744,-3.85218 2.71522,-3.48568 5.44634,-6.99025 7.57227,-10.87797 4.64815,-8.38443 8.55743,-17.19897 11.08554,-26.46693 1.25522,-4.88608 2.08566,-7.66745 2.89495,-12.69332 1.28946,-8.00775 1.00375,-16.01219 -0.7013,-23.94284 -0.5413,-2.18245 -0.97175,-4.39541 -1.62391,-6.54733 -2.10023,-6.93007 -5.59989,-14.32314 -10.67511,-19.60844 -0.73648,-0.76696 -1.65617,-1.33401 -2.48425,-2.00102 -1.88207,-0.86116 -3.63684,-1.63159 -5.76988,-1.4118 -3.53388,0.36413 -10.3202,5.43183 4.1294,-3.34125 -3.59678,2.18663 -6.80842,4.86241 -9.21144,8.36417 -2.53839,3.52492 -4.91096,7.18237 -6.97585,11.00566 0,0 -9.66861,4.32386 -9.66861,4.32386 z"
       id="path3011"
       style="fill:#000000;fill-opacity:1;fill-rule:nonzero;stroke:none" />
    <path
       d="m 440.74387,394.27545 c 3.26861,9.2647 6.09084,18.6772 8.75179,28.1316 2.82653,9.54155 5.39194,19.15225 7.81732,28.80191 1.34505,5.33042 2.85318,10.62518 3.93303,16.01816 0,0 -9.2398,4.92177 -9.2398,4.92177 l 0,0 c -0.9128,-5.43712 -2.32531,-10.77384 -3.58016,-16.13847 -2.32868,-9.68182 -4.90222,-19.30578 -7.55235,-28.90409 -2.69848,-9.33626 -5.44429,-18.71206 -9.33459,-27.63486 0,0 9.20476,-5.19602 9.20476,-5.19602 z"
       id="path3013"
       style="fill:#000000;fill-opacity:1;fill-rule:nonzero;stroke:none" />
    <path
       d="m 430.81502,439.86457 c -1.4466,-4.49244 -1.73937,-9.13671 -1.77342,-13.81987 0.40084,-6.72563 1.42031,-13.38738 2.68568,-19.99756 1.26624,-6.01478 3.32425,-11.8288 5.64612,-17.50813 1.20626,-2.64235 2.50204,-5.34721 4.70444,-7.32298 3.45319,-3.09784 12.69267,-7.6266 13.85648,-8.28748 4.85829,-1.96408 10.13209,-3.04515 15.33075,-1.71636 3.40057,0.8692 7.15772,2.78404 10.30935,4.2397 5.4502,2.48638 10.10537,6.27515 14.65185,10.10393 2.0711,1.74416 5.82194,4.98084 7.62586,7.12051 1.21018,1.43544 2.20513,3.03933 3.30769,4.55899 0.98439,1.6024 2.11064,3.12587 2.95317,4.8072 2.90118,5.78952 5.36139,14.55622 5.46446,21.08739 0.0227,1.43559 -0.16896,2.86657 -0.25343,4.29985 -0.23722,1.28499 -0.33026,2.60518 -0.71166,3.85498 -1.72238,5.64396 -5.97355,11.56528 -9.8664,15.92798 -1.05755,1.1852 -2.20766,2.28445 -3.31149,3.42667 -4.88052,4.65619 -10.46781,8.40263 -16.17798,11.93991 0,0 -9.37142,3.62448 -9.37142,3.62448 l 0,0 c 5.73266,-3.45997 11.347,-7.12589 16.26721,-11.70921 1.11315,-1.11744 2.27074,-2.19232 3.33946,-3.35233 3.87093,-4.20158 8.14413,-9.95116 9.96823,-15.41976 0.40621,-1.21784 0.54291,-2.50955 0.81437,-3.76432 0.12189,-1.39796 0.34951,-2.7907 0.36568,-4.19387 0.0776,-6.73489 -2.08629,-14.76347 -5.11459,-20.73181 -0.83815,-1.65187 -1.94273,-3.15442 -2.9141,-4.73164 -1.10466,-1.46387 -2.12546,-2.99496 -3.31397,-4.39161 -1.86837,-2.19555 -5.28796,-5.29194 -7.42776,-7.11331 -4.48087,-3.81406 -9.19886,-7.37276 -14.56831,-9.85594 -3.66754,-1.63499 -6.31217,-3.05585 -10.2733,-3.87812 -5.17887,-1.07505 -10.35961,0.17402 -15.07978,2.28541 1.94765,-1.1818 3.85935,-2.425 5.84296,-3.5454 0.73769,-0.41666 -1.43545,0.90626 -2.10027,1.43143 -2.2923,1.81081 -3.67036,4.38958 -4.90989,6.97461 -2.41646,5.59723 -4.56313,11.32642 -5.7509,17.32647 -1.34356,6.54287 -2.56131,13.12924 -2.79854,19.82416 -0.005,4.53993 0.25477,9.09578 1.86934,13.39189 0,0 -9.28589,5.11414 -9.28589,5.11414 z"
       id="path3015"
       style="fill:#000000;fill-opacity:1;fill-rule:nonzero;stroke:none" />
    <path
       d="m 267.78151,460.49587 c -1.42239,-0.9863 -3.22555,-1.22042 -4.89486,-0.73883 -0.39873,0.11503 -1.49497,0.71788 -1.13534,0.51082 2.65246,-1.52722 5.34563,-2.98262 8.01844,-4.47393 -0.56165,0.54734 -1.23648,1.04654 -1.41904,1.88134 -0.6112,2.7949 0.69886,6.41735 1.7171,8.97148 1.38152,2.82097 3.55716,5.31734 6.97329,5.27884 0.66138,-0.007 1.30521,-0.21533 1.95781,-0.323 6.17195,-2.95342 -3.17593,2.18085 -4.91751,2.98197 -0.69261,0.3186 1.21767,-0.92801 1.74456,-1.47901 1.54745,-1.61825 2.19801,-3.27353 2.78099,-5.36914 0.46368,-2.93592 -0.82524,-5.50746 -3.03376,-7.4396 -0.64781,-0.56674 -1.41548,-0.97969 -2.12322,-1.46953 0,0 8.72275,-5.54818 8.72275,-5.54818 l 0,0 c 0.75683,0.55144 1.57565,1.02658 2.2705,1.65433 1.7651,1.59466 3.3027,3.87293 3.62761,6.27467 0.09,0.66498 -0.0334,1.34165 -0.0502,2.01248 -0.14303,0.66873 -0.2137,1.35713 -0.42909,2.00617 -2.28641,6.88986 -10.70674,10.64023 -16.96599,12.587 -0.7188,0.0285 -1.44009,0.15194 -2.1564,0.0856 -3.67018,-0.33974 -5.97564,-3.08501 -7.46753,-6.19258 -0.95693,-2.41592 -1.64393,-4.70122 -1.99163,-7.28765 -0.10539,-0.78394 -0.2883,-1.57179 -0.23703,-2.36113 0.0503,-0.77452 0.79316,-1.82221 1.17318,-2.44451 5.94399,-3.41336 10.43356,-8.61831 16.79042,-4.81086 0,0 -8.95509,5.69321 -8.95509,5.69321 z"
       id="path3017"
       style="fill:#000000;fill-opacity:1;fill-rule:nonzero;stroke:none" />
    <path
       d="m 42.096106,513.06008 c -4.540911,3.77301 -7.784813,8.91258 -10.758231,13.95105 -0.413761,0.89023 -0.921266,1.74263 -1.241283,2.67069 -1.203962,3.49155 -1.820546,8.9201 -1.173342,12.58957 0.197779,1.12135 0.577682,2.20283 0.866523,3.30425 1.445573,4.14687 3.45404,8.08458 5.972508,11.68354 0.964583,1.37841 2.354302,3.05635 3.415272,4.37092 3.642304,4.63477 8.49641,8.0129 13.166012,11.51284 6.209775,4.82816 12.310324,9.85095 17.719933,15.57468 1.31138,1.60167 2.5771,2.88709 3.356184,4.85138 1.640965,4.13735 1.398692,8.82719 0.949111,13.14425 -0.293848,1.00517 -0.492386,2.04327 -0.881543,3.01552 -2.440914,6.09829 -7.574685,9.7805 -12.650255,13.54702 -7.917224,5.50688 -16.034932,10.86046 -24.773382,14.99254 -1.738534,0.82524 -3.500632,1.55271 -5.412072,1.80606 0,0 8.43055,-6.36582 8.43055,-6.36582 l 0,0 c 1.787064,-0.44019 3.482881,-1.13993 5.137479,-1.94548 4.276412,-2.10695 1.694206,-0.88919 -4.938056,3.07489 -0.819214,0.48964 1.669527,-0.92629 2.485119,-1.42194 3.314346,-2.01419 6.480912,-4.26539 9.700183,-6.42397 4.892836,-3.56669 10.130892,-7.15606 12.718143,-12.87485 0.412004,-0.91069 0.638889,-1.89425 0.958333,-2.84138 0.561877,-4.11634 0.89685,-8.57703 -0.664494,-12.55254 -0.723816,-1.84298 -1.955522,-3.16283 -3.158379,-4.68919 -5.305218,-5.75566 -11.350824,-10.74527 -17.625898,-15.41326 -4.7855,-3.50041 -9.711046,-6.96453 -13.388994,-11.68923 -3.960671,-5.01339 -7.475457,-10.34155 -9.494351,-16.46475 -0.347655,-1.14788 -0.808945,-2.26731 -1.042966,-3.44363 -0.666595,-3.35065 -0.0049,-9.81968 0.964599,-13.05729 0.289295,-0.96611 0.800756,-1.85123 1.201134,-2.77684 1.690053,-2.88501 3.441625,-5.63515 5.422685,-8.33183 1.201175,-1.63507 2.459085,-3.38988 3.833907,-4.90005 0.324335,-0.35627 0.70706,-0.65463 1.06059,-0.98194 0,0 9.844981,-3.91521 9.844981,-3.91521 z"
       id="path3019"
       style="fill:#000000;fill-opacity:1;fill-rule:nonzero;stroke:none" />
    <path
       d="m 76.558594,579.59558 c 2.918807,3.35914 6.097087,6.4925 9.021333,9.84514 0.791406,0.90735 5.086729,6.16763 5.88062,7.13719 3.464938,3.90045 6.365924,8.31188 10.040033,12.02602 0.24559,0.18534 0.43737,0.48515 0.73678,0.55602 0.15612,0.037 0.52631,-0.36394 0.38349,-0.29085 -2.953663,1.51174 -5.668375,3.5794 -8.822324,4.60998 -0.555268,0.18143 0.105577,-1.16774 0.07268,-1.75097 -0.07006,-1.24195 -0.601475,-4.45019 -0.779224,-5.59544 -1.019216,-6.44145 -2.045479,-12.88369 -2.831675,-19.35851 -0.170488,-5.18943 0.193027,-10.37739 0.824875,-15.525 0,0 9.287918,-4.57582 9.287918,-4.57582 l 0,0 c -0.752413,5.06509 -1.194897,10.18145 -0.956377,15.30725 0.651267,6.48254 1.632607,12.91609 2.772337,19.32999 0.32088,1.87486 0.66973,3.74519 0.96106,5.62488 0.10918,0.70438 0.81904,1.64483 0.28688,2.11906 -5.095918,4.54117 -7.299531,8.4191 -10.923905,5.0204 -3.495915,-3.88673 -6.280144,-8.36236 -9.698414,-12.31796 -4.771158,-5.863 -9.757946,-11.55507 -15.319957,-16.68969 0,0 9.063872,-5.47169 9.063872,-5.47169 z"
       id="path3021"
       style="fill:#000000;fill-opacity:1;fill-rule:nonzero;stroke:none" />
    <path
       d="m 135.47497,541.79326 c -0.57119,0.50537 -2.14002,1.84021 -2.54442,2.43392 -2.3104,3.39194 -2.52033,7.76264 -2.72407,11.70851 0.0442,5.17339 1.22077,8.11131 4.89163,11.6756 1.28159,1.0764 3.41738,2.84572 5.26077,2.70573 0.85326,-0.0648 1.44812,-0.67739 2.07268,-1.15615 -2.65038,1.27769 -5.10081,3.1033 -7.95116,3.83305 -0.693,0.17742 0.5616,-1.31785 0.7834,-1.99794 0.81308,-2.49307 1.08866,-5.02983 1.16462,-7.63278 0.10525,-2.41903 -0.56338,-4.76497 -0.76592,-7.15769 -0.14738,-4.50667 2.96659,-3.78125 9.74409,-6.41182 0.45838,-0.17791 0.72513,0.66432 1.08212,1.00243 1.68548,1.59632 1.4823,1.45021 3.46559,3.53898 4.95845,5.80114 10.39198,11.19812 14.9065,17.37162 3.88108,5.3073 5.70338,8.4924 9.1988,14.12552 4.79927,8.74158 4.09076,6.96504 8.11862,16.32368 1.152,2.67664 2.30271,5.3567 3.31272,8.09008 2.51047,6.79407 4.34091,13.80832 6.09129,20.82526 0.49474,3.93985 1.73717,8.58817 0.61898,12.57208 -0.575,2.04864 -2.43196,5.22699 -3.95886,6.7001 -1.23289,1.18945 -2.7456,2.04963 -4.11841,3.07445 -4.61802,2.43422 -9.0996,5.14708 -13.85407,7.30267 -1.94383,0.8813 -4.07791,1.27255 -6.15377,1.76852 -9.04293,2.16053 -18.34042,2.45698 -27.57941,2.97157 -6.55401,0.62647 -13.57255,0.30619 -19.9021,2.41673 -1.23474,0.41171 -4.83959,1.9023 -3.59227,1.53048 1.70477,-0.5082 3.31402,-1.29433 4.97103,-1.94149 -4.06811,3.61602 -5.69699,8.11851 -7.58534,13.03092 0,0 -9.06535,4.21412 -9.06535,4.21412 l 0,0 c 1.81282,-4.88924 3.39924,-9.81048 7.33811,-13.48356 4.11101,-2.70229 8.10267,-5.59553 12.33303,-8.10688 1.83194,-1.08753 5.6687,-1.94251 7.69365,-2.26634 5.17899,-0.82824 10.47456,-0.82744 15.69191,-1.186 6.94447,-0.3595 13.92229,-0.61789 20.79428,-1.77549 2.24167,-0.37762 4.47328,-0.83302 6.67367,-1.40392 2.07534,-0.53846 4.03903,-2.3538 6.13882,-1.92037 1.33438,0.27543 -2.14353,1.68255 -3.2153,2.52382 1.36173,-0.91367 2.8531,-1.65886 4.08518,-2.74103 1.38779,-1.21892 3.53135,-4.40132 4.13517,-6.18634 1.30561,-3.85969 0.21514,-8.53336 -0.13844,-12.41197 -1.15571,-5.28825 -1.56197,-7.55028 -3.1458,-12.9391 -3.30516,-11.24547 -7.93038,-22.10753 -13.89951,-32.201 -1.54186,-2.43651 -3.01198,-4.91991 -4.62557,-7.30951 -5.78782,-8.57126 -12.78449,-16.23777 -20.01652,-23.59843 -0.0236,-0.0218 -2.98477,-2.80017 -3.63249,-3.276 -0.25463,-0.18705 -1.09077,-0.2648 -0.83446,-0.44954 2.76235,-1.99105 5.86401,-3.46417 8.75667,-5.26066 0.10395,-0.0646 -0.29621,-0.0536 -0.36389,0.0483 -0.1083,0.16311 -0.0376,0.38978 -0.0564,0.58467 0.0217,2.442 0.86964,4.82014 0.69347,7.28108 -0.0549,2.72912 -0.36599,5.30521 -1.07888,7.95045 -0.19547,0.72531 -0.0945,1.65896 -0.65837,2.15526 -3.01905,2.65717 -6.53004,4.69676 -9.79506,7.04515 -0.40503,0.16156 -0.78788,0.39729 -1.21511,0.48467 -2.60232,0.53228 -5.03776,-1.66944 -6.821,-3.20057 -3.78125,-3.83853 -5.15784,-7.03683 -5.1778,-12.50807 0.14548,-3.27236 0.37674,-6.46869 1.29191,-9.63792 0.2624,-0.9087 0.5166,-1.83692 0.97248,-2.66564 0.18781,-0.34143 2.04256,-2.1818 2.38694,-2.52977 0,0 9.80162,-3.93347 9.80162,-3.93347 z"
       id="path3023"
       style="fill:#000000;fill-opacity:1;fill-rule:nonzero;stroke:none" />
    <path
       d="m 485.67223,204.10189 c 0.79351,1.49274 1.76967,4.18934 3.86124,3.95474 2.99264,-2.62462 0.0676,10e-4 -8.05056,4.3536 -0.22803,0.12225 0.40048,-0.32972 0.57892,-0.51709 0.51581,-0.54161 0.80295,-0.9329 0.68397,-1.66511 -1.25426,-1.12941 -2.87416,-1.05856 -4.48173,-1.03062 -3.2542,0.0566 -5.86347,0.81822 -8.9462,1.75783 1.87541,-1.44625 -6.46817,3.14736 -4.83826,2.38732 2.41603,-1.1266 4.6031,-2.7909 7.14627,-3.5901 0.66328,-0.20844 -0.85536,1.10436 -1.18471,1.71667 -0.81818,1.52115 -0.71126,1.93313 -0.90616,3.59274 0.0763,0.56946 0.0762,1.15453 0.22905,1.70838 0.96104,3.48248 4.9397,4.94206 7.96002,6.01416 2.93567,0.63577 1.49271,0.42396 4.32428,0.66614 0,0 -8.50002,6.02916 -8.50002,6.02916 l 0,0 c -2.89622,-0.41213 -1.41973,-0.12113 -4.42353,-0.90268 -3.42132,-1.32202 -7.4398,-3.05341 -8.60492,-6.91854 -0.18855,-0.6255 -0.21848,-1.2882 -0.32772,-1.9323 0.035,-0.68654 -0.0155,-1.38285 0.10511,-2.05963 1.08306,-6.07786 7.33521,-7.73564 12.251,-10.82954 1.67245,-1.0526 3.0513,-1.45429 4.90941,-2.15422 3.57058,-0.98366 10.21743,-2.72215 13.61315,-0.52446 0.39224,0.25386 0.65837,0.66313 0.98755,0.99469 0.41811,1.21461 0.51275,1.53591 -0.21977,2.63904 -0.15445,0.23259 -0.268,0.52051 -0.50484,0.66836 -9.30451,5.8084 -5.98147,5.58781 -10.48404,5.71095 -2.24634,-0.76963 -3.35782,-2.86787 -4.40987,-4.86812 0,0 9.23236,-5.20137 9.23236,-5.20137 z"
       id="path3025"
       style="fill:#000000;fill-opacity:1;fill-rule:nonzero;stroke:none" />
    <path
       d="m 566.38182,190.91722 c -2.71262,1.96165 -4.6949,4.27456 -6.1532,7.27311 -0.53718,1.45714 -1.60387,4.2849 0.16166,5.32476 0.22831,-0.0486 0.47585,-0.0419 0.68495,-0.14568 0.38143,-0.18928 1.44049,-0.90205 1.05631,-0.7184 -2.37758,1.13656 -4.521,2.83338 -7.04758,3.58242 -0.95809,0.28404 1.44337,-1.38444 2.11857,-2.12114 1.37898,-1.50455 2.37954,-2.88483 3.61103,-4.49661 1.06121,-1.6999 3.53687,-4.63256 2.75242,-6.88269 -0.3776,-1.08309 -1.16337,-1.31013 -2.06377,-1.84152 -0.53295,-0.18102 -1.06591,-0.36203 -1.59886,-0.54305 0,0 8.68472,-5.83868 8.68472,-5.83868 l 0,0 c 0.57896,0.24299 1.15793,0.48598 1.73689,0.72897 1.19918,0.86829 1.97515,1.16101 2.54144,2.63184 1.05294,2.73485 -1.23773,5.53988 -2.56953,7.6647 -1.08417,1.43867 -2.42113,3.25774 -3.58893,4.61725 -0.646,0.75205 -1.20608,1.61566 -2.01739,2.18547 -3.49125,2.45198 -7.13828,4.68135 -10.82262,6.83234 -1.09497,0.63927 -1.48829,0.30644 -2.47228,-0.0252 -0.22673,-0.22342 -0.49587,-0.41074 -0.68019,-0.67025 -1.21989,-1.71751 -0.63677,-4.12127 -0.0413,-5.92456 1.42276,-3.26229 3.08367,-5.46607 5.86271,-7.71783 0,0 9.84498,-3.91521 9.84498,-3.91521 z"
       id="path3027"
       style="fill:#000000;fill-opacity:1;fill-rule:nonzero;stroke:none" />
    <path
       d="m 639.25431,240.41806 c 0.70878,4.0167 1.88845,8.01861 2.18071,12.10214 0.25159,3.51537 0.009,5.82529 -0.18752,9.33966 -0.53859,4.26713 -1.07854,9.23684 -3.11498,13.11768 -0.89437,1.7044 -1.98545,3.31305 -3.19755,4.80828 -3.57521,4.41036 -5.33985,5.30579 -9.87071,8.74021 -4.8961,2.70674 -9.65401,5.68013 -14.68831,8.12023 -3.76423,1.8245 -10.99159,3.53613 -15.01612,4.12459 -9.34304,1.36614 -18.78016,0.8081 -28.15649,0.35357 -11.09623,-0.68745 -22.07326,-2.5007 -33.00994,-4.41283 -7.38167,-1.29059 -14.14629,-2.52162 -21.45438,-4.14379 -3.22413,-0.71566 -6.4232,-1.53991 -9.63479,-2.30987 -10.70069,-2.78855 -5.59843,-1.34005 -15.32139,-4.29373 0,0 8.02256,-5.46474 8.02256,-5.46474 l 0,0 c 9.48731,3.06081 4.4991,1.55829 14.98123,4.45198 3.17557,0.78217 6.33733,1.62268 9.5267,2.34651 7.20476,1.63515 14.07114,2.9038 21.35492,4.16969 10.95452,1.90384 21.96075,3.63724 33.07929,4.22517 9.41975,0.35677 18.8816,0.80831 28.24179,-0.72314 2.66388,-0.43585 5.26073,-1.21226 7.8911,-1.81839 2.35818,-0.86097 4.61267,-2.09146 7.07453,-2.58292 0.82315,-0.16433 -1.31547,1.04303 -1.97321,1.56454 4.53894,-3.29936 6.24781,-4.11056 9.85572,-8.37603 1.18519,-1.4012 2.25731,-2.91341 3.14048,-4.52217 2.1113,-3.84586 2.69439,-8.60099 3.27889,-12.85995 0.24374,-3.97255 0.45916,-5.14434 0.14356,-9.08912 -0.32164,-4.02039 -1.42371,-7.95036 -2.39975,-11.84467 0,0 9.25366,-5.0229 9.25366,-5.0229 z"
       id="path3029"
       style="fill:#000000;fill-opacity:1;fill-rule:nonzero;stroke:none" />
    <path
       d="m 658.2483,547.83431 c -0.79905,-0.32076 -1.6039,-0.62742 -2.39715,-0.96226 -1.20349,-0.50802 -2.37908,-1.08215 -3.59247,-1.56605 -7.6305,-3.04309 -15.55895,-5.3291 -23.42407,-7.66496 -2.49283,-0.7038 -4.96554,-1.4832 -7.47848,-2.1114 -3.7736,-0.94337 -13.07209,-2.79985 -16.7641,-3.55655 -9.85157,-2.01914 -19.70339,-3.80353 -29.62612,-5.43927 -3.65561,-0.43149 -7.30385,-0.9308 -10.96683,-1.29447 -7.22794,-0.71761 -16.06301,-1.28118 -23.30787,-1.57492 -7.80707,-0.31654 -16.26227,-0.49667 -24.07475,-0.19342 -3.93001,0.15255 -7.84839,0.52528 -11.77258,0.78792 -10.55786,0.97577 -21.08947,2.30065 -31.54007,4.0997 -5.60826,0.96546 -9.27218,1.66277 -14.64012,3.21146 -1.80635,0.52114 -3.57123,1.17657 -5.35684,1.76485 -1.38488,0.58984 -5.59953,2.19145 -4.15463,1.7695 1.66614,-0.48655 3.43572,-3.00848 4.82239,-1.9645 1.19853,0.90234 -2.13644,2.11209 -3.10803,3.25519 -1.54167,1.8138 -3.08498,4.00805 -3.93627,6.26716 -0.37016,0.9823 -0.4972,2.03972 -0.74581,3.05959 8.7e-4,1.03918 -0.13744,2.08784 0.003,3.11755 0.72684,5.3446 3.6826,10.17645 5.95139,14.9512 0.74423,1.56624 1.41257,3.16741 2.11886,4.75112 2.43053,5.64015 5.43129,11.49894 5.34571,17.81903 -0.0178,1.31139 -0.0407,2.66962 -0.48091,3.90503 -0.57593,1.61615 -1.67446,2.99512 -2.51169,4.49268 -4.7856,5.73395 -10.83811,9.98409 -17.32785,13.58229 -5.36957,2.97713 -10.76123,5.92458 -16.27903,8.61709 -3.38704,1.65276 -15.16522,6.07624 -18.51485,7.36052 -18.52417,6.61772 -37.14777,12.95021 -55.42918,20.22253 -10.12158,4.16371 -20.18196,8.51278 -30.04195,13.26835 -3.40106,1.57568 -11.2489,5.79129 4.10682,-2.60463 0.35957,-0.1966 -0.68267,0.45509 -1.00475,0.70848 -0.76871,0.60476 -1.05666,0.96246 -1.73653,1.6788 -5.76598,6.21782 -12.93547,10.88598 -20.02905,15.42767 -9.63481,5.70131 -2.72484,1.64525 -18.30465,10.57244 -1.35008,0.77359 5.28795,-3.26181 4.05454,-2.31322 -1.46057,1.12329 -3.16786,1.88292 -4.74144,2.8415 -1.45264,0.88491 -2.89131,1.79254 -4.33696,2.68881 0,0 -9.3222,3.61241 -9.3222,3.61241 l 0,0 c 7.28208,-4.52126 14.62523,-8.82391 22.08122,-13.07922 1.24315,-0.7095 -4.93901,2.89499 -3.68716,2.20095 1.67861,-0.93063 3.31194,-1.94067 4.96791,-2.91101 6.92549,-4.39835 14.03275,-8.84754 19.60356,-14.95686 0.38056,-0.44525 1.22105,-1.45574 1.65938,-1.86354 4.15086,-3.86188 9.6925,-5.96006 14.75044,-8.42223 9.71521,-4.508 19.57392,-8.7121 29.4928,-12.74905 18.25284,-7.1045 36.79393,-13.40527 55.21698,-20.04819 3.20586,-1.24614 6.42935,-2.44782 9.61758,-3.7384 3.01347,-1.21984 5.91015,-2.73829 8.98563,-3.79208 0.22816,-0.0782 -0.24452,0.83002 -0.0284,0.72298 6.46438,-3.20166 12.20891,-7.68115 17.08957,-12.95938 0.8459,-1.35605 1.93994,-2.58588 2.53768,-4.06814 0.46965,-1.16461 0.54343,-2.46438 0.60247,-3.71873 0.29257,-6.21545 -2.61522,-12.0563 -5.03161,-17.57729 -1.94432,-3.99692 -4.02672,-7.93948 -5.76525,-12.03278 -0.90256,-2.12507 -2.34592,-5.58269 -2.74583,-7.9141 -0.18818,-1.09707 -0.0716,-2.22504 -0.10741,-3.33756 0.22612,-1.09877 0.31637,-2.23453 0.67835,-3.29633 0.82916,-2.43219 2.34688,-4.62614 3.948,-6.59484 5.02129,-6.17411 12.11408,-10.44579 19.59253,-13.03554 1.75399,-0.53638 3.48995,-1.13571 5.26197,-1.60913 5.28536,-1.41206 8.88947,-2.03913 14.39242,-2.91554 10.39103,-1.65489 20.84718,-2.92047 31.32789,-3.84259 3.92497,-0.24291 7.84484,-0.59108 11.77491,-0.72873 7.67341,-0.26876 16.46525,-0.0861 24.13172,0.22359 6.99891,0.28272 16.43928,0.87623 23.42688,1.56074 3.68711,0.36119 7.35916,0.86238 11.03874,1.29356 9.99322,1.60579 19.92434,3.34943 29.85091,5.32559 4.27834,0.85172 12.60993,2.46831 16.92664,3.52858 2.53328,0.62222 5.02929,1.3874 7.54393,2.08111 6.38443,1.83932 12.75555,3.69035 19.05386,5.81055 10.47501,3.5262 -0.21499,-0.0324 8.53327,3.10722 0.8538,0.30642 1.72659,0.55712 2.58989,0.83568 0,0 -8.76655,5.91349 -8.76655,5.91349 z"
       id="path3031"
       style="fill:#000000;fill-opacity:1;fill-rule:nonzero;stroke:none" />
    <text
       x="314.28571"
       y="204.50504"
       id="text3033"
       xml:space="preserve"
       style="font-size:40px;font-style:normal;font-weight:normal;line-height:125%;letter-spacing:0px;word-spacing:0px;fill:#000000;fill-opacity:1;stroke:none;font-family:Sans"><tspan
         x="314.28571"
         y="204.50504"
         id="tspan3035">Hi there!</tspan></text>
    <path
       d="m 467.14286,304.14789 a 44.285713,41.785713 0 1 1 -88.57143,0 44.285713,41.785713 0 1 1 88.57143,0 z"
       id="path3117"
       style="fill:#ff0000;fill-rule:evenodd;stroke:#000000;stroke-width:1px;stroke-linecap:butt;stroke-linejoin:miter;stroke-opacity:1" />
    <rect
       width="103.57143"
       height="61.42857"
       x="515"
       y="322.36218"
       id="rect3119"
       style="fill:#0000ff;fill-rule:evenodd;stroke:#000000;stroke-width:1px;stroke-linecap:butt;stroke-linejoin:miter;stroke-opacity:1" />
    <g
       id="g3123"
       style="fill:none;stroke:none">
      <path
         d="m 537.14285,665.34669 123.57144,32.01549 25.63656,-52.63233 -94.32189,-16.29158 z"
         id="path3133"
         style="fill:#afafde;fill-rule:evenodd;stroke:none" />
      <path
         d="m 537.14285,598.79075 0,66.55594 54.88611,-36.90842 0,-48.90449 z"
         id="path3125"
         style="fill:#353564;fill-rule:evenodd;stroke:none" />
      <path
         d="m 592.02896,579.53378 94.32189,8.50014 0,56.69593 -94.32189,-16.29158 z"
         id="path3135"
         style="fill:#e9e9ff;fill-rule:evenodd;stroke:none" />
      <path
         d="m 537.14285,598.79075 123.57144,16.70409 25.63656,-27.46092 -94.32189,-8.50014 z"
         id="path3127"
         style="fill:#4d4d9f;fill-rule:evenodd;stroke:none" />
      <path
         d="m 660.71429,615.49484 0,81.86734 25.63656,-52.63233 0,-56.69593 z"
         id="path3131"
         style="fill:#d7d7ff;fill-rule:evenodd;stroke:none" />
      <path
         d="m 537.14285,598.79075 123.57144,16.70409 0,81.86734 -123.57144,-32.01549 z"
         id="path3129"
         style="fill:#8686bf;fill-rule:evenodd;stroke:none" />
    </g>
    <path
       d="m 307.14285,598.0765 -27.75589,52.48842 -58.49649,-10.17761 -8.39693,-58.77852 53.3069,-26.14952 z"
       id="path3137"
       style="fill:#ffff00;fill-rule:evenodd;stroke:#000000;stroke-width:1px;stroke-linecap:butt;stroke-linejoin:miter;stroke-opacity:1" />
    <path
       d="m 392.14286,550.21933 6.98448,17.52953 6.98448,17.52954 -14.51325,12.05957 -14.51326,12.05956 -15.95417,-10.07631 -15.95417,-10.07632 4.65303,-18.28708 4.65304,-18.28707 18.82991,-1.22571 z"
       id="path3139"
       style="fill:#ffff00;fill-rule:evenodd;stroke:#000000;stroke-width:1px;stroke-linecap:butt;stroke-linejoin:miter;stroke-opacity:1" />
    <path
       d="m 479.28573,497.3622 -13.46186,18.80978 7.86331,21.75311 -22.04911,-6.99045 -18.25854,14.20053 -0.16523,-23.13011 -19.14771,-12.9767 21.94698,-7.30475 6.42461,-22.22057 13.72922,18.61553 z"
       id="path3141"
       style="fill:#ffff00;fill-rule:evenodd;stroke:#000000;stroke-width:1px;stroke-linecap:butt;stroke-linejoin:miter;stroke-opacity:1" />
  </g>
</svg>
